<mxfile host="Electron" modified="2024-07-14T13:11:32.288Z" agent="Mozilla/5.0 (Windows NT 10.0; Win64; x64) AppleWebKit/537.36 (KHTML, like Gecko) draw.io/21.2.8 Chrome/112.0.5615.165 Electron/24.2.0 Safari/537.36" etag="1XstxQsDAqA2DyHmrIhg" version="21.2.8" type="device">
  <diagram name="第 1 页" id="dzLj8AS6qNnH2fe3U6Px">
    <mxGraphModel dx="989" dy="1751" grid="1" gridSize="10" guides="1" tooltips="1" connect="1" arrows="1" fold="1" page="1" pageScale="1" pageWidth="827" pageHeight="1169" math="0" shadow="0">
      <root>
        <mxCell id="0" />
        <mxCell id="1" parent="0" />
        <mxCell id="v7G9Y8UD9o7gFEmZqoU4-15" value="数据结构与算法" style="swimlane;startSize=20;horizontal=1;containerType=tree;" vertex="1" parent="1">
          <mxGeometry x="50" y="-190" width="860" height="1555" as="geometry" />
        </mxCell>
        <mxCell id="v7G9Y8UD9o7gFEmZqoU4-16" value="" style="edgeStyle=entityRelationEdgeStyle;startArrow=none;endArrow=none;segment=10;curved=1;sourcePerimeterSpacing=0;targetPerimeterSpacing=0;rounded=0;" edge="1" parent="v7G9Y8UD9o7gFEmZqoU4-15" source="v7G9Y8UD9o7gFEmZqoU4-20" target="v7G9Y8UD9o7gFEmZqoU4-21">
          <mxGeometry relative="1" as="geometry" />
        </mxCell>
        <mxCell id="v7G9Y8UD9o7gFEmZqoU4-20" value="Root" style="ellipse;whiteSpace=wrap;html=1;align=center;treeFolding=1;treeMoving=1;newEdgeStyle={&quot;edgeStyle&quot;:&quot;entityRelationEdgeStyle&quot;,&quot;startArrow&quot;:&quot;none&quot;,&quot;endArrow&quot;:&quot;none&quot;,&quot;segment&quot;:10,&quot;curved&quot;:1,&quot;sourcePerimeterSpacing&quot;:0,&quot;targetPerimeterSpacing&quot;:0};" vertex="1" parent="v7G9Y8UD9o7gFEmZqoU4-15">
          <mxGeometry x="70" y="880" width="100" height="40" as="geometry" />
        </mxCell>
        <mxCell id="v7G9Y8UD9o7gFEmZqoU4-21" value="数据结构" style="whiteSpace=wrap;html=1;rounded=1;arcSize=50;align=center;verticalAlign=middle;strokeWidth=1;autosize=1;spacing=4;treeFolding=1;treeMoving=1;newEdgeStyle={&quot;edgeStyle&quot;:&quot;entityRelationEdgeStyle&quot;,&quot;startArrow&quot;:&quot;none&quot;,&quot;endArrow&quot;:&quot;none&quot;,&quot;segment&quot;:10,&quot;curved&quot;:1,&quot;sourcePerimeterSpacing&quot;:0,&quot;targetPerimeterSpacing&quot;:0};" vertex="1" parent="v7G9Y8UD9o7gFEmZqoU4-15">
          <mxGeometry x="210" y="330" width="85" height="30" as="geometry" />
        </mxCell>
        <mxCell id="v7G9Y8UD9o7gFEmZqoU4-31" value="HashMap" style="whiteSpace=wrap;html=1;rounded=1;arcSize=50;align=center;verticalAlign=middle;strokeWidth=1;autosize=1;spacing=4;treeFolding=1;treeMoving=1;newEdgeStyle={&quot;edgeStyle&quot;:&quot;entityRelationEdgeStyle&quot;,&quot;startArrow&quot;:&quot;none&quot;,&quot;endArrow&quot;:&quot;none&quot;,&quot;segment&quot;:10,&quot;curved&quot;:1,&quot;sourcePerimeterSpacing&quot;:0,&quot;targetPerimeterSpacing&quot;:0};" vertex="1" parent="v7G9Y8UD9o7gFEmZqoU4-15">
          <mxGeometry x="360" y="210" width="100" height="30" as="geometry" />
        </mxCell>
        <mxCell id="v7G9Y8UD9o7gFEmZqoU4-32" value="" style="edgeStyle=entityRelationEdgeStyle;startArrow=none;endArrow=none;segment=10;curved=1;sourcePerimeterSpacing=0;targetPerimeterSpacing=0;rounded=0;exitX=1;exitY=0.5;exitDx=0;exitDy=0;" edge="1" target="v7G9Y8UD9o7gFEmZqoU4-31" parent="v7G9Y8UD9o7gFEmZqoU4-15" source="v7G9Y8UD9o7gFEmZqoU4-21">
          <mxGeometry relative="1" as="geometry">
            <mxPoint x="330" y="240" as="sourcePoint" />
          </mxGeometry>
        </mxCell>
        <mxCell id="v7G9Y8UD9o7gFEmZqoU4-33" value="Array" style="whiteSpace=wrap;html=1;rounded=1;arcSize=50;align=center;verticalAlign=middle;strokeWidth=1;autosize=1;spacing=4;treeFolding=1;treeMoving=1;newEdgeStyle={&quot;edgeStyle&quot;:&quot;entityRelationEdgeStyle&quot;,&quot;startArrow&quot;:&quot;none&quot;,&quot;endArrow&quot;:&quot;none&quot;,&quot;segment&quot;:10,&quot;curved&quot;:1,&quot;sourcePerimeterSpacing&quot;:0,&quot;targetPerimeterSpacing&quot;:0};" vertex="1" parent="v7G9Y8UD9o7gFEmZqoU4-15">
          <mxGeometry x="390" y="430" width="70" height="30" as="geometry" />
        </mxCell>
        <mxCell id="v7G9Y8UD9o7gFEmZqoU4-34" value="" style="edgeStyle=entityRelationEdgeStyle;startArrow=none;endArrow=none;segment=10;curved=1;sourcePerimeterSpacing=0;targetPerimeterSpacing=0;rounded=0;exitX=1;exitY=0.5;exitDx=0;exitDy=0;" edge="1" parent="v7G9Y8UD9o7gFEmZqoU4-15" source="v7G9Y8UD9o7gFEmZqoU4-21" target="v7G9Y8UD9o7gFEmZqoU4-33">
          <mxGeometry relative="1" as="geometry">
            <mxPoint x="295" y="345" as="sourcePoint" />
            <mxPoint x="375" y="213" as="targetPoint" />
          </mxGeometry>
        </mxCell>
        <mxCell id="v7G9Y8UD9o7gFEmZqoU4-35" value="LRU Cache" style="whiteSpace=wrap;html=1;shape=partialRectangle;top=0;left=0;bottom=1;right=0;points=[[0,1],[1,1]];fillColor=none;align=center;verticalAlign=bottom;routingCenterY=0.5;snapToPoint=1;recursiveResize=0;autosize=1;treeFolding=1;treeMoving=1;newEdgeStyle={&quot;edgeStyle&quot;:&quot;entityRelationEdgeStyle&quot;,&quot;startArrow&quot;:&quot;none&quot;,&quot;endArrow&quot;:&quot;none&quot;,&quot;segment&quot;:10,&quot;curved&quot;:1,&quot;sourcePerimeterSpacing&quot;:0,&quot;targetPerimeterSpacing&quot;:0};" vertex="1" parent="v7G9Y8UD9o7gFEmZqoU4-15">
          <mxGeometry x="520" y="110" width="100" height="30" as="geometry" />
        </mxCell>
        <mxCell id="v7G9Y8UD9o7gFEmZqoU4-36" value="" style="edgeStyle=entityRelationEdgeStyle;startArrow=none;endArrow=none;segment=10;curved=1;sourcePerimeterSpacing=0;targetPerimeterSpacing=0;rounded=0;exitX=1;exitY=0.5;exitDx=0;exitDy=0;" edge="1" target="v7G9Y8UD9o7gFEmZqoU4-35" parent="v7G9Y8UD9o7gFEmZqoU4-15" source="v7G9Y8UD9o7gFEmZqoU4-31">
          <mxGeometry relative="1" as="geometry">
            <mxPoint x="500" y="180" as="sourcePoint" />
          </mxGeometry>
        </mxCell>
        <mxCell id="v7G9Y8UD9o7gFEmZqoU4-37" value="两数之和" style="whiteSpace=wrap;html=1;shape=partialRectangle;top=0;left=0;bottom=1;right=0;points=[[0,1],[1,1]];fillColor=none;align=center;verticalAlign=bottom;routingCenterY=0.5;snapToPoint=1;recursiveResize=0;autosize=1;treeFolding=1;treeMoving=1;newEdgeStyle={&quot;edgeStyle&quot;:&quot;entityRelationEdgeStyle&quot;,&quot;startArrow&quot;:&quot;none&quot;,&quot;endArrow&quot;:&quot;none&quot;,&quot;segment&quot;:10,&quot;curved&quot;:1,&quot;sourcePerimeterSpacing&quot;:0,&quot;targetPerimeterSpacing&quot;:0};" vertex="1" parent="v7G9Y8UD9o7gFEmZqoU4-15">
          <mxGeometry x="515" y="150" width="90" height="30" as="geometry" />
        </mxCell>
        <mxCell id="v7G9Y8UD9o7gFEmZqoU4-38" value="" style="edgeStyle=entityRelationEdgeStyle;startArrow=none;endArrow=none;segment=10;curved=1;sourcePerimeterSpacing=0;targetPerimeterSpacing=0;rounded=0;exitX=1;exitY=0.5;exitDx=0;exitDy=0;" edge="1" parent="v7G9Y8UD9o7gFEmZqoU4-15" source="v7G9Y8UD9o7gFEmZqoU4-31" target="v7G9Y8UD9o7gFEmZqoU4-37">
          <mxGeometry relative="1" as="geometry">
            <mxPoint x="460" y="213" as="sourcePoint" />
            <mxPoint x="495" y="130" as="targetPoint" />
          </mxGeometry>
        </mxCell>
        <mxCell id="v7G9Y8UD9o7gFEmZqoU4-39" value="三数之和" style="whiteSpace=wrap;html=1;shape=partialRectangle;top=0;left=0;bottom=1;right=0;points=[[0,1],[1,1]];fillColor=none;align=center;verticalAlign=bottom;routingCenterY=0.5;snapToPoint=1;recursiveResize=0;autosize=1;treeFolding=1;treeMoving=1;newEdgeStyle={&quot;edgeStyle&quot;:&quot;entityRelationEdgeStyle&quot;,&quot;startArrow&quot;:&quot;none&quot;,&quot;endArrow&quot;:&quot;none&quot;,&quot;segment&quot;:10,&quot;curved&quot;:1,&quot;sourcePerimeterSpacing&quot;:0,&quot;targetPerimeterSpacing&quot;:0};" vertex="1" parent="v7G9Y8UD9o7gFEmZqoU4-15">
          <mxGeometry x="515" y="190" width="90" height="30" as="geometry" />
        </mxCell>
        <mxCell id="v7G9Y8UD9o7gFEmZqoU4-40" value="" style="edgeStyle=entityRelationEdgeStyle;startArrow=none;endArrow=none;segment=10;curved=1;sourcePerimeterSpacing=0;targetPerimeterSpacing=0;rounded=0;exitX=1;exitY=0.5;exitDx=0;exitDy=0;" edge="1" parent="v7G9Y8UD9o7gFEmZqoU4-15" source="v7G9Y8UD9o7gFEmZqoU4-31" target="v7G9Y8UD9o7gFEmZqoU4-39">
          <mxGeometry relative="1" as="geometry">
            <mxPoint x="460" y="213" as="sourcePoint" />
            <mxPoint x="515" y="170" as="targetPoint" />
          </mxGeometry>
        </mxCell>
        <mxCell id="v7G9Y8UD9o7gFEmZqoU4-41" value="缺失的第一个正数" style="whiteSpace=wrap;html=1;shape=partialRectangle;top=0;left=0;bottom=1;right=0;points=[[0,1],[1,1]];fillColor=none;align=center;verticalAlign=bottom;routingCenterY=0.5;snapToPoint=1;recursiveResize=0;autosize=1;treeFolding=1;treeMoving=1;newEdgeStyle={&quot;edgeStyle&quot;:&quot;entityRelationEdgeStyle&quot;,&quot;startArrow&quot;:&quot;none&quot;,&quot;endArrow&quot;:&quot;none&quot;,&quot;segment&quot;:10,&quot;curved&quot;:1,&quot;sourcePerimeterSpacing&quot;:0,&quot;targetPerimeterSpacing&quot;:0};" vertex="1" parent="v7G9Y8UD9o7gFEmZqoU4-15">
          <mxGeometry x="515" y="230" width="140" height="30" as="geometry" />
        </mxCell>
        <mxCell id="v7G9Y8UD9o7gFEmZqoU4-42" value="" style="edgeStyle=entityRelationEdgeStyle;startArrow=none;endArrow=none;segment=10;curved=1;sourcePerimeterSpacing=0;targetPerimeterSpacing=0;rounded=0;exitX=1;exitY=0.5;exitDx=0;exitDy=0;" edge="1" parent="v7G9Y8UD9o7gFEmZqoU4-15" source="v7G9Y8UD9o7gFEmZqoU4-31" target="v7G9Y8UD9o7gFEmZqoU4-41">
          <mxGeometry relative="1" as="geometry">
            <mxPoint x="460" y="225" as="sourcePoint" />
            <mxPoint x="515" y="220" as="targetPoint" />
          </mxGeometry>
        </mxCell>
        <mxCell id="v7G9Y8UD9o7gFEmZqoU4-43" value="多数元素" style="whiteSpace=wrap;html=1;shape=partialRectangle;top=0;left=0;bottom=1;right=0;points=[[0,1],[1,1]];fillColor=none;align=center;verticalAlign=bottom;routingCenterY=0.5;snapToPoint=1;recursiveResize=0;autosize=1;treeFolding=1;treeMoving=1;newEdgeStyle={&quot;edgeStyle&quot;:&quot;entityRelationEdgeStyle&quot;,&quot;startArrow&quot;:&quot;none&quot;,&quot;endArrow&quot;:&quot;none&quot;,&quot;segment&quot;:10,&quot;curved&quot;:1,&quot;sourcePerimeterSpacing&quot;:0,&quot;targetPerimeterSpacing&quot;:0};" vertex="1" parent="v7G9Y8UD9o7gFEmZqoU4-15">
          <mxGeometry x="515" y="270" width="90" height="30" as="geometry" />
        </mxCell>
        <mxCell id="v7G9Y8UD9o7gFEmZqoU4-44" value="" style="edgeStyle=entityRelationEdgeStyle;startArrow=none;endArrow=none;segment=10;curved=1;sourcePerimeterSpacing=0;targetPerimeterSpacing=0;rounded=0;exitX=1;exitY=0.5;exitDx=0;exitDy=0;" edge="1" parent="v7G9Y8UD9o7gFEmZqoU4-15" source="v7G9Y8UD9o7gFEmZqoU4-31" target="v7G9Y8UD9o7gFEmZqoU4-43">
          <mxGeometry relative="1" as="geometry">
            <mxPoint x="460" y="225" as="sourcePoint" />
            <mxPoint x="490" y="260" as="targetPoint" />
          </mxGeometry>
        </mxCell>
        <mxCell id="v7G9Y8UD9o7gFEmZqoU4-45" value="最长连续序列" style="whiteSpace=wrap;html=1;shape=partialRectangle;top=0;left=0;bottom=1;right=0;points=[[0,1],[1,1]];fillColor=none;align=center;verticalAlign=bottom;routingCenterY=0.5;snapToPoint=1;recursiveResize=0;autosize=1;treeFolding=1;treeMoving=1;newEdgeStyle={&quot;edgeStyle&quot;:&quot;entityRelationEdgeStyle&quot;,&quot;startArrow&quot;:&quot;none&quot;,&quot;endArrow&quot;:&quot;none&quot;,&quot;segment&quot;:10,&quot;curved&quot;:1,&quot;sourcePerimeterSpacing&quot;:0,&quot;targetPerimeterSpacing&quot;:0};" vertex="1" parent="v7G9Y8UD9o7gFEmZqoU4-15">
          <mxGeometry x="515" y="310" width="110" height="30" as="geometry" />
        </mxCell>
        <mxCell id="v7G9Y8UD9o7gFEmZqoU4-46" value="" style="edgeStyle=entityRelationEdgeStyle;startArrow=none;endArrow=none;segment=10;curved=1;sourcePerimeterSpacing=0;targetPerimeterSpacing=0;rounded=0;exitX=1;exitY=0.5;exitDx=0;exitDy=0;" edge="1" parent="v7G9Y8UD9o7gFEmZqoU4-15" source="v7G9Y8UD9o7gFEmZqoU4-31" target="v7G9Y8UD9o7gFEmZqoU4-45">
          <mxGeometry relative="1" as="geometry">
            <mxPoint x="460" y="225" as="sourcePoint" />
            <mxPoint x="515" y="310" as="targetPoint" />
          </mxGeometry>
        </mxCell>
        <mxCell id="v7G9Y8UD9o7gFEmZqoU4-49" value="合并两个有序数组" style="whiteSpace=wrap;html=1;shape=partialRectangle;top=0;left=0;bottom=1;right=0;points=[[0,1],[1,1]];fillColor=none;align=center;verticalAlign=bottom;routingCenterY=0.5;snapToPoint=1;recursiveResize=0;autosize=1;treeFolding=1;treeMoving=1;newEdgeStyle={&quot;edgeStyle&quot;:&quot;entityRelationEdgeStyle&quot;,&quot;startArrow&quot;:&quot;none&quot;,&quot;endArrow&quot;:&quot;none&quot;,&quot;segment&quot;:10,&quot;curved&quot;:1,&quot;sourcePerimeterSpacing&quot;:0,&quot;targetPerimeterSpacing&quot;:0};" vertex="1" parent="v7G9Y8UD9o7gFEmZqoU4-15">
          <mxGeometry x="520" y="350" width="155" height="30" as="geometry" />
        </mxCell>
        <mxCell id="v7G9Y8UD9o7gFEmZqoU4-50" value="" style="edgeStyle=entityRelationEdgeStyle;startArrow=none;endArrow=none;segment=10;curved=1;sourcePerimeterSpacing=0;targetPerimeterSpacing=0;rounded=0;exitX=1;exitY=0.5;exitDx=0;exitDy=0;" edge="1" target="v7G9Y8UD9o7gFEmZqoU4-49" parent="v7G9Y8UD9o7gFEmZqoU4-15" source="v7G9Y8UD9o7gFEmZqoU4-33">
          <mxGeometry relative="1" as="geometry">
            <mxPoint x="560" y="440" as="sourcePoint" />
          </mxGeometry>
        </mxCell>
        <mxCell id="v7G9Y8UD9o7gFEmZqoU4-51" value="搜索二位矩阵" style="whiteSpace=wrap;html=1;shape=partialRectangle;top=0;left=0;bottom=1;right=0;points=[[0,1],[1,1]];fillColor=none;align=center;verticalAlign=bottom;routingCenterY=0.5;snapToPoint=1;recursiveResize=0;autosize=1;treeFolding=1;treeMoving=1;newEdgeStyle={&quot;edgeStyle&quot;:&quot;entityRelationEdgeStyle&quot;,&quot;startArrow&quot;:&quot;none&quot;,&quot;endArrow&quot;:&quot;none&quot;,&quot;segment&quot;:10,&quot;curved&quot;:1,&quot;sourcePerimeterSpacing&quot;:0,&quot;targetPerimeterSpacing&quot;:0};" vertex="1" parent="v7G9Y8UD9o7gFEmZqoU4-15">
          <mxGeometry x="520" y="390" width="110" height="30" as="geometry" />
        </mxCell>
        <mxCell id="v7G9Y8UD9o7gFEmZqoU4-52" value="" style="edgeStyle=entityRelationEdgeStyle;startArrow=none;endArrow=none;segment=10;curved=1;sourcePerimeterSpacing=0;targetPerimeterSpacing=0;rounded=0;exitX=1;exitY=0.5;exitDx=0;exitDy=0;" edge="1" parent="v7G9Y8UD9o7gFEmZqoU4-15" source="v7G9Y8UD9o7gFEmZqoU4-33" target="v7G9Y8UD9o7gFEmZqoU4-51">
          <mxGeometry relative="1" as="geometry">
            <mxPoint x="460" y="445" as="sourcePoint" />
            <mxPoint x="485" y="390" as="targetPoint" />
          </mxGeometry>
        </mxCell>
        <mxCell id="v7G9Y8UD9o7gFEmZqoU4-53" value="螺旋矩阵" style="whiteSpace=wrap;html=1;shape=partialRectangle;top=0;left=0;bottom=1;right=0;points=[[0,1],[1,1]];fillColor=none;align=center;verticalAlign=bottom;routingCenterY=0.5;snapToPoint=1;recursiveResize=0;autosize=1;treeFolding=1;treeMoving=1;newEdgeStyle={&quot;edgeStyle&quot;:&quot;entityRelationEdgeStyle&quot;,&quot;startArrow&quot;:&quot;none&quot;,&quot;endArrow&quot;:&quot;none&quot;,&quot;segment&quot;:10,&quot;curved&quot;:1,&quot;sourcePerimeterSpacing&quot;:0,&quot;targetPerimeterSpacing&quot;:0};" vertex="1" parent="v7G9Y8UD9o7gFEmZqoU4-15">
          <mxGeometry x="525" y="440" width="90" height="30" as="geometry" />
        </mxCell>
        <mxCell id="v7G9Y8UD9o7gFEmZqoU4-54" value="" style="edgeStyle=entityRelationEdgeStyle;startArrow=none;endArrow=none;segment=10;curved=1;sourcePerimeterSpacing=0;targetPerimeterSpacing=0;rounded=0;exitX=1;exitY=0.5;exitDx=0;exitDy=0;" edge="1" parent="v7G9Y8UD9o7gFEmZqoU4-15" source="v7G9Y8UD9o7gFEmZqoU4-33" target="v7G9Y8UD9o7gFEmZqoU4-53">
          <mxGeometry relative="1" as="geometry">
            <mxPoint x="460" y="445" as="sourcePoint" />
            <mxPoint x="508" y="430" as="targetPoint" />
          </mxGeometry>
        </mxCell>
        <mxCell id="v7G9Y8UD9o7gFEmZqoU4-55" value="旋转图像" style="whiteSpace=wrap;html=1;shape=partialRectangle;top=0;left=0;bottom=1;right=0;points=[[0,1],[1,1]];fillColor=none;align=center;verticalAlign=bottom;routingCenterY=0.5;snapToPoint=1;recursiveResize=0;autosize=1;treeFolding=1;treeMoving=1;newEdgeStyle={&quot;edgeStyle&quot;:&quot;entityRelationEdgeStyle&quot;,&quot;startArrow&quot;:&quot;none&quot;,&quot;endArrow&quot;:&quot;none&quot;,&quot;segment&quot;:10,&quot;curved&quot;:1,&quot;sourcePerimeterSpacing&quot;:0,&quot;targetPerimeterSpacing&quot;:0};" vertex="1" parent="v7G9Y8UD9o7gFEmZqoU4-15">
          <mxGeometry x="525" y="490" width="90" height="30" as="geometry" />
        </mxCell>
        <mxCell id="v7G9Y8UD9o7gFEmZqoU4-56" value="" style="edgeStyle=entityRelationEdgeStyle;startArrow=none;endArrow=none;segment=10;curved=1;sourcePerimeterSpacing=0;targetPerimeterSpacing=0;rounded=0;exitX=1;exitY=0.5;exitDx=0;exitDy=0;" edge="1" parent="v7G9Y8UD9o7gFEmZqoU4-15" source="v7G9Y8UD9o7gFEmZqoU4-33" target="v7G9Y8UD9o7gFEmZqoU4-55">
          <mxGeometry relative="1" as="geometry">
            <mxPoint x="460" y="445" as="sourcePoint" />
            <mxPoint x="510" y="490" as="targetPoint" />
          </mxGeometry>
        </mxCell>
      </root>
    </mxGraphModel>
  </diagram>
</mxfile>
